{"title":"Shellter (2009) WEBRip","uid":8381303,"size":1071684771,"categoryP":"video","categoryS":"movies","magnet":"?xt=urn:btih:a2d0664334d3d81699a7f71f432a7911ca5e99d3&amp;dn=Shellter+%282009%29+WEBRip&amp;tr=udp%3A%2F%2Ftracker.openbittorrent.com%3A80&amp;tr=udp%3A%2F%2Fopen.demonii.com%3A1337&amp;tr=udp%3A%2F%2Ftracker.coppersurfer.tk%3A6969&amp;tr=udp%3A%2F%2Fexodus.desync.com%3A6969","seeders":0,"leechers":1,"uploader":"RadioResearch","files":3,"time":1366174277,"description":"*******************************************************************************\n                            Shellter (2009) WEBRip\n*******************************************************************************\n\n-------------------------------------------------------------------------------\n                              General Information\n-------------------------------------------------------------------------------\nType.................: Movie\n\n\n\nVideo Format.........: AVI\nVideo Bitrate........: 1622\nResolution...........: 640 x 360\nColor................: 8 bit\nFPS..................: 24.000\nSource...............: WEB 16:9\nOriginal Format......: NTSC\nGenre................: Horror\nIMDb Rating..........: 5.3\nMovie Information....: http://www.imdb.com/title/tt1378339/\n\n-------------------------------------------------------------------------------\n                               Post Information\n-------------------------------------------------------------------------------\nPosted by............: RadioResearch\nPosted on............: 4/17/2013\n\n-------------------------------------------------------------------------------\n                                 Release Notes\n-------------------------------------------------------------------------------\nSEEDBOX SPPORTED!!\n\nA young woman, Zoey, finds herself in a hospital room in an underground fallout \nshelter. The doctor, who runs the shelter, explains that an infection has killed \nthe entire population above ground. The only people left are either a few lone \nsurvivors like herself, and the infected... the living dead. The only way of \ncuring the infection, she is told, is by surgically removing the affected area. \nThe doctor is assisted by a nurse who has seemingly gone completely insane. \nTogether, they &quot;treat&quot; a steady stream of survivors. The doctor wants Zoey to to \nreplace the unstable nurse and become his new assistant. Zoey is very hesitant, \nbut the doctor is willing to do whatever it takes to survive, no matter how \nquestionable or terrible the acts. But after a patient offers to trade places \nwith Zoey and do &quot;anything&quot; the doctor wants, Zoey realizes that if she doesn't \ndo these terrible things, someone else will do these things to her. Zoey has to \ndecide what she is willing to do to survive, and the viewer has to make the same \ndecision: How far would you go to survive? Don't kid yourself, you'd do \nanything.\n\nEnjoy!\n\nRadioResearch\n\nGeneral\nComplete name                            : G:Shellter (2009) WEBRip\nShellter.avi\nFormat                                   : AVI\nFormat/Info                              : Audio Video Interleave\nFile size                                : 1 022 MiB\nDuration                                 : 1h 28mn\nOverall bit rate                         : 1 622 Kbps\n\nVideo\nID                                       : 0\nFormat                                   : MPEG-4 Visual\nFormat profile                           : Simple@L3\nFormat settings, BVOP                    : No\nFormat settings, QPel                    : No\nFormat settings, GMC                     : No warppoints\nFormat settings, Matrix                  : Default (H.263)\nCodec ID                                 : XVID\nCodec ID/Hint                            : XviD\nDuration                                 : 1h 28mn\nBit rate                                 : 1 482 Kbps\nWidth                                    : 640 pixels\nHeight                                   : 360 pixels\nDisplay aspect ratio                     : 16:9\nFrame rate                               : 24.000 fps\nColor space                              : YUV\nChroma subsampling                       : 4:2:0\nBit depth                                : 8 bits\nScan type                                : Progressive\nCompression mode                         : Lossy\nBits/(Pixel*Frame)                       : 0.268\nStream size                              : 934 MiB (91%)\nWriting library                          : XviD 1.2.1 (UTC 2008-12-04)\n\nAudio\nID                                       : 1\nFormat                                   : MPEG Audio\nFormat version                           : Version 1\nFormat profile                           : Layer 3\nMode                                     : Joint stereo\nMode extension                           : MS Stereo\nCodec ID                                 : 55\nCodec ID/Hint                            : MP3\nDuration                                 : 1h 28mn\nBit rate mode                            : Constant\nBit rate                                 : 128 Kbps\nChannel(s)                               : 2 channels\nSampling rate                            : 44.1 KHz\nCompression mode                         : Lossy\nStream size                              : 80.6 MiB (8%)\nAlignment                                : Aligned on interleaves\nInterleave, duration                     : 26 ms (0.63 video frame)\nWriting library                          : LAME3.98.2\n\n\n\n\n-------------------------------------------------------------------------------\nGenerated with Cool NFO Creator - http://fly.to/coolbeans\n-------------------------------------------------------------------------------\n","torrent":{"xt":"urn:btih:a2d0664334d3d81699a7f71f432a7911ca5e99d3","amp;dn":"Shellter+%282009%29+WEBRip","amp;tr":["udp%3A%2F%2Ftracker.openbittorrent.com%3A80","udp%3A%2F%2Fopen.demonii.com%3A1337","udp%3A%2F%2Ftracker.coppersurfer.tk%3A6969","udp%3A%2F%2Fexodus.desync.com%3A6969"],"infoHash":"a2d0664334d3d81699a7f71f432a7911ca5e99d3","infoHashBuffer":{"type":"Buffer","data":[162,208,102,67,52,211,216,22,153,167,247,31,67,42,121,17,202,94,153,211]},"announce":[],"urlList":[]}}